
<!-- Generator: visioncortex VTracer 0.6.4 -->
<svg version="1.1" xmlns="http://www.w3.org/2000/svg" viewBox="0 0 512 512" preserveAspectRatio="xMidYMid meet">
<path d="M0 0 C2.502 0.881 5.005 1.759 7.509 2.633 C12.526 4.39 17.536 6.165 22.542 7.955 C28.542 10.1 34.553 12.212 40.574 14.301 C42.275 14.891 43.977 15.482 45.678 16.072 C46.505 16.359 47.332 16.646 48.184 16.942 C51.579 18.123 54.971 19.312 58.363 20.501 C72.559 25.477 86.786 30.365 101.012 35.254 C119.051 41.455 137.089 47.659 155.103 53.932 C156.871 54.547 158.638 55.162 160.406 55.776 C165.049 57.389 169.687 59.013 174.317 60.661 C175.806 61.191 177.295 61.717 178.785 62.242 C181.001 63.025 183.212 63.821 185.422 64.621 C186.08 64.852 186.739 65.082 187.417 65.32 C192.854 67.318 195.499 69.528 198.5 74.438 C199.561 77.642 199.652 80.67 199.705 84.032 C199.725 85.153 199.745 86.274 199.766 87.429 C199.791 89.235 199.791 89.235 199.816 91.078 C199.837 92.315 199.858 93.553 199.879 94.828 C199.934 98.109 199.984 101.39 200.032 104.672 C200.083 108.023 200.138 111.375 200.193 114.727 C200.3 121.297 200.402 127.867 200.5 134.438 C201.177 134.755 201.854 135.072 202.551 135.399 C203.891 136.045 203.891 136.045 205.258 136.703 C206.141 137.124 207.024 137.544 207.934 137.978 C213.925 141.386 218.292 147.335 220.84 153.688 C222.879 162.18 222.85 171.839 218.473 179.543 C216.6 183.19 216.26 185.617 217.425 189.6 C217.907 190.767 218.39 191.934 218.887 193.137 C219.145 193.772 219.403 194.407 219.669 195.061 C220.497 197.088 221.342 199.106 222.188 201.125 C222.738 202.462 223.286 203.8 223.834 205.139 C226.757 212.274 226.757 212.274 229.768 219.373 C232.99 226.978 234.562 234.961 231.547 242.969 C227.78 249.358 222.994 252.559 216.051 254.802 C211.74 255.876 207.517 255.865 203.094 255.836 C202.129 255.839 201.164 255.842 200.17 255.845 C198.143 255.847 196.116 255.841 194.089 255.829 C191.008 255.813 187.929 255.829 184.848 255.848 C182.867 255.846 180.887 255.842 178.906 255.836 C177.542 255.845 177.542 255.845 176.15 255.854 C168.676 255.773 161.222 254.662 155.5 249.438 C152.168 269.456 152.23 285.852 157.5 305.438 C159.368 305.635 159.368 305.635 161.273 305.836 C167.407 306.484 171.642 309.255 175.75 313.688 C180.65 319.832 182.016 325.691 181.5 333.438 C181.191 334.777 180.864 336.112 180.5 337.438 C181.799 337.355 183.099 337.272 184.438 337.188 C190.793 337.227 195.789 339.011 200.551 343.273 C206.65 349.865 207.982 355.58 207.816 364.465 C207.092 371.273 203.697 376.086 198.5 380.438 C194.04 383.507 189.747 385.016 184.5 386.438 C178.411 407.479 179.188 425.12 184.5 446.438 C185.676 446.52 186.851 446.603 188.062 446.688 C195.221 447.622 199.906 451.131 204.277 456.668 C208.357 462.573 208.212 469.512 207.5 476.438 C205.723 483.083 201.055 487.61 195.5 491.438 C191.43 493.425 188.109 493.69 183.602 493.695 C182.917 493.698 182.231 493.702 181.526 493.705 C179.225 493.715 176.925 493.71 174.624 493.705 C172.96 493.709 171.296 493.713 169.632 493.719 C165.054 493.731 160.477 493.731 155.9 493.728 C150.964 493.728 146.029 493.739 141.093 493.748 C131.42 493.765 121.747 493.77 112.074 493.772 C104.208 493.773 96.342 493.777 88.476 493.783 C66.17 493.801 43.864 493.81 21.557 493.808 C19.753 493.808 19.753 493.808 17.912 493.808 C16.708 493.808 15.503 493.808 14.262 493.808 C-5.24 493.807 -24.742 493.826 -44.245 493.854 C-64.274 493.883 -84.304 493.897 -104.334 493.895 C-115.577 493.895 -126.82 493.9 -138.063 493.922 C-147.64 493.94 -157.217 493.944 -166.794 493.931 C-171.677 493.924 -176.559 493.924 -181.442 493.941 C-185.921 493.957 -190.399 493.954 -194.878 493.937 C-196.49 493.934 -198.102 493.937 -199.713 493.948 C-213.064 494.035 -225.604 492.143 -237.625 485.875 C-238.283 485.536 -238.94 485.197 -239.618 484.848 C-258.593 474.618 -271.375 456.951 -277.938 436.625 C-283.082 415.291 -279.944 393.311 -269.062 374.43 C-265.318 368.345 -260.63 363.368 -255.5 358.438 C-254.845 357.775 -254.19 357.112 -253.516 356.43 C-244.63 347.961 -233.198 342.694 -221.5 339.438 C-224.144 336.714 -226.766 334.219 -229.75 331.875 C-243.398 320.185 -251.106 301.927 -253.5 284.438 C-254.947 261.195 -249.293 239.546 -233.75 221.688 C-222.302 209.707 -206.157 199.796 -189.5 197.438 C-187.52 197.438 -185.54 197.438 -183.5 197.438 C-183.5 173.017 -183.5 148.597 -183.5 123.438 C-187.13 122.447 -190.76 121.458 -194.5 120.438 C-196.743 119.728 -198.98 118.997 -201.206 118.233 C-202.397 117.825 -203.588 117.418 -204.816 116.998 C-206.078 116.563 -207.34 116.127 -208.602 115.691 C-209.932 115.234 -211.262 114.777 -212.593 114.321 C-215.362 113.369 -218.13 112.415 -220.897 111.459 C-224.42 110.242 -227.945 109.033 -231.471 107.825 C-234.212 106.885 -236.952 105.941 -239.691 104.996 C-240.99 104.549 -242.288 104.103 -243.588 103.658 C-266.295 95.876 -266.295 95.876 -270.609 88.555 C-272.588 83.852 -272.009 78.907 -270.375 74.188 C-266.22 68.094 -261.222 65.568 -254.441 63.336 C-253.645 63.062 -252.849 62.788 -252.029 62.505 C-249.377 61.595 -246.72 60.704 -244.062 59.812 C-242.171 59.167 -240.28 58.52 -238.39 57.872 C-234.296 56.47 -230.199 55.076 -226.101 53.685 C-216.814 50.529 -207.548 47.312 -198.279 44.101 C-193.529 42.456 -188.777 40.816 -184.024 39.18 C-174.267 35.823 -164.514 32.463 -154.805 28.973 C-153.436 28.484 -152.066 27.997 -150.697 27.509 C-148.336 26.665 -145.979 25.809 -143.627 24.938 C-138.119 22.979 -134.199 21.752 -128.5 23.438 C-127.84 24.097 -127.18 24.758 -126.5 25.438 C-124.606 25.346 -124.606 25.346 -122.5 24.75 C-121.707 24.553 -120.914 24.356 -120.098 24.152 C-115.874 22.99 -111.68 21.746 -107.5 20.438 C-107.5 19.365 -107.5 18.293 -107.5 17.188 C-106.5 13.438 -106.5 13.438 -103.147 11.458 C-97.943 9.07 -92.554 7.214 -87.141 5.363 C-86.074 4.994 -85.007 4.625 -83.908 4.244 C-81.667 3.469 -79.424 2.697 -77.181 1.927 C-73.745 0.748 -70.312 -0.439 -66.879 -1.627 C-64.695 -2.381 -62.512 -3.134 -60.328 -3.887 C-59.302 -4.241 -58.276 -4.595 -57.219 -4.96 C-56.264 -5.287 -55.309 -5.615 -54.325 -5.952 C-53.488 -6.24 -52.65 -6.527 -51.787 -6.824 C-33.739 -12.652 -17.005 -6.154 0 0 Z M178.238 99.871 C177.328 100.186 176.418 100.5 175.48 100.824 C174.483 101.171 173.485 101.518 172.457 101.875 C171.423 102.233 170.389 102.592 169.324 102.961 C167.115 103.727 164.906 104.494 162.698 105.261 C159.4 106.407 156.102 107.549 152.803 108.691 C150.646 109.44 148.489 110.189 146.332 110.938 C145.377 111.268 144.422 111.599 143.438 111.939 C132.749 115.66 122.14 119.568 111.5 123.438 C111.5 147.528 111.5 171.618 111.5 196.438 C128.33 196.438 145.16 196.438 162.5 196.438 C168.259 187.631 168.259 187.631 166.5 182.438 C165.861 180.925 165.193 179.425 164.5 177.938 C160.764 169.917 160.302 162.294 163.062 153.812 C167.31 143.356 173.268 140.019 183.5 134.438 C183.5 122.558 183.5 110.677 183.5 98.438 C181.667 98.438 179.952 99.277 178.238 99.871 Z " fill="#020201" transform="translate(279.5,13.5625)"/>
<path d="M0 0 C1.417 -0.001 2.834 -0.004 4.251 -0.008 C8.112 -0.014 11.972 -0.003 15.833 0.013 C20.009 0.026 24.185 0.021 28.36 0.019 C35.584 0.017 42.808 0.027 50.032 0.044 C60.476 0.068 70.92 0.076 81.365 0.08 C98.312 0.086 115.26 0.106 132.207 0.134 C148.665 0.162 165.122 0.183 181.58 0.196 C183.103 0.197 183.103 0.197 184.657 0.198 C189.751 0.202 194.845 0.206 199.939 0.21 C242.163 0.241 284.387 0.294 326.611 0.361 C324.863 5.828 322.953 11.119 320.611 16.361 C319.915 16.362 319.219 16.363 318.502 16.364 C277.225 16.422 235.948 16.496 194.671 16.59 C189.713 16.601 184.755 16.612 179.797 16.623 C178.81 16.625 177.823 16.628 176.806 16.63 C160.832 16.665 144.857 16.69 128.882 16.711 C112.487 16.733 96.092 16.766 79.696 16.809 C69.582 16.836 59.468 16.854 49.354 16.86 C42.415 16.865 35.476 16.882 28.538 16.906 C24.536 16.92 20.535 16.93 16.534 16.926 C12.865 16.922 9.196 16.933 5.528 16.954 C3.583 16.962 1.639 16.955 -0.306 16.947 C-14.798 17.064 -27.676 21.048 -38.354 31.142 C-47.07 40.645 -51.235 53.291 -50.772 66.099 C-49.268 78.909 -43.902 90.259 -33.943 98.54 C-21.495 107.41 -9.367 108.677 5.443 108.662 C6.968 108.665 8.492 108.67 10.017 108.675 C13.195 108.682 16.373 108.682 19.55 108.676 C23.62 108.671 27.69 108.688 31.76 108.711 C34.9 108.726 38.041 108.726 41.182 108.723 C42.683 108.724 44.184 108.729 45.685 108.739 C47.779 108.751 49.872 108.745 51.966 108.733 C53.751 108.734 53.751 108.734 55.571 108.735 C58.9 108.325 60.312 107.779 62.611 105.361 C63.218 100.787 63.218 100.787 61.485 96.666 C58.724 94.743 56.531 94.982 53.187 94.976 C52.54 94.971 51.892 94.965 51.225 94.96 C49.819 94.95 48.413 94.947 47.006 94.95 C44.773 94.955 42.54 94.941 40.306 94.922 C35.554 94.885 30.801 94.871 26.049 94.861 C20.563 94.849 15.077 94.827 9.592 94.781 C7.406 94.767 5.221 94.771 3.035 94.776 C-8.471 94.73 -18.53 93.186 -27.389 85.361 C-33.938 77.9 -36.939 70.683 -36.631 60.712 C-35.748 52.144 -32.556 45.401 -26.389 39.361 C-15.694 31.227 -5.228 31.081 7.611 31.236 C9.068 31.246 10.525 31.255 11.982 31.263 C15.525 31.285 19.068 31.319 22.611 31.361 C22.617 31.918 22.623 32.475 22.629 33.049 C22.693 38.84 22.777 44.631 22.874 50.422 C22.907 52.584 22.935 54.746 22.958 56.908 C22.991 60.014 23.044 63.119 23.1 66.224 C23.106 67.193 23.112 68.162 23.119 69.16 C23.139 70.061 23.159 70.961 23.179 71.889 C23.19 72.682 23.201 73.475 23.213 74.292 C23.714 76.893 24.506 77.788 26.611 79.361 C33.495 80.279 38.717 77.474 44.764 74.585 C49.106 72.705 51.789 72.02 56.369 73.517 C57.796 74.102 59.212 74.714 60.611 75.361 C61.519 75.746 62.426 76.132 63.361 76.529 C64.104 76.865 64.846 77.202 65.611 77.548 C70.105 79.364 74.81 80.696 79.611 79.361 C89.245 66.516 83.246 47.412 83.611 31.361 C158.851 31.361 234.091 31.361 311.611 31.361 C310.126 37.301 310.126 37.301 308.611 43.361 C305.773 58.575 307.32 74.371 310.611 89.361 C310.947 91.027 311.281 92.694 311.611 94.361 C310.465 94.363 309.318 94.366 308.137 94.368 C280.271 94.427 252.406 94.503 224.54 94.596 C221.86 94.605 219.18 94.614 216.5 94.623 C215.834 94.625 215.168 94.628 214.482 94.63 C203.688 94.665 192.894 94.69 182.1 94.711 C171.029 94.733 159.959 94.766 148.888 94.809 C142.668 94.833 136.447 94.852 130.227 94.858 C124.377 94.864 118.528 94.884 112.678 94.915 C110.527 94.924 108.375 94.928 106.224 94.926 C103.295 94.924 100.367 94.941 97.438 94.962 C96.579 94.957 95.72 94.952 94.835 94.947 C90.593 94.88 90.593 94.88 86.898 96.666 C84.743 99.504 85.184 101.945 85.611 105.361 C87.373 107.454 88.844 108.255 91.558 108.628 C94.113 108.743 96.651 108.749 99.208 108.726 C100.684 108.731 100.684 108.731 102.19 108.735 C105.496 108.742 108.803 108.728 112.109 108.714 C114.476 108.715 116.843 108.717 119.21 108.72 C124.311 108.725 129.412 108.721 134.514 108.71 C141.895 108.695 149.276 108.7 156.657 108.712 C168.64 108.731 180.622 108.74 192.605 108.74 C193.322 108.74 194.039 108.74 194.778 108.74 C202.779 108.739 210.781 108.736 218.783 108.729 C219.502 108.728 220.221 108.727 220.962 108.727 C222.04 108.726 222.04 108.726 223.14 108.725 C224.589 108.724 226.038 108.722 227.487 108.721 C228.203 108.72 228.919 108.72 229.657 108.719 C241.594 108.709 253.53 108.719 265.467 108.743 C272.169 108.756 278.871 108.76 285.573 108.739 C291.874 108.719 298.175 108.723 304.476 108.744 C306.791 108.747 309.106 108.742 311.422 108.728 C314.577 108.709 317.732 108.722 320.888 108.742 C321.808 108.729 322.728 108.716 323.677 108.703 C328.149 108.764 330.027 108.913 333.68 111.712 C335.611 114.361 335.611 114.361 336.236 117.361 C335.597 120.427 334.826 122.16 332.532 124.312 C327.939 126.82 322.12 126.031 317.038 125.982 C315.624 125.987 314.21 125.993 312.796 126.002 C308.91 126.019 305.025 126.004 301.139 125.985 C296.948 125.97 292.757 125.983 288.566 125.993 C280.353 126.007 272.14 125.995 263.928 125.974 C254.359 125.95 244.79 125.951 235.221 125.954 C218.139 125.958 201.057 125.937 183.976 125.903 C167.414 125.87 150.852 125.855 134.29 125.862 C116.253 125.869 98.216 125.866 80.178 125.846 C78.746 125.845 78.746 125.845 77.284 125.843 C75.366 125.841 73.447 125.839 71.529 125.837 C64.866 125.83 58.203 125.829 51.54 125.831 C43.409 125.832 35.278 125.822 27.147 125.799 C23.001 125.787 18.856 125.78 14.711 125.786 C10.908 125.791 7.106 125.782 3.303 125.762 C1.292 125.755 -0.719 125.763 -2.73 125.771 C-21.019 125.636 -36.704 120.243 -49.697 107.247 C-63.249 92.713 -68.072 77.125 -67.701 57.642 C-67.011 41.526 -59.583 28.594 -48.389 17.361 C-47.774 16.723 -47.159 16.085 -46.525 15.427 C-33.806 3.198 -17.037 -0.115 0 0 Z " fill="#F0F1F1" transform="translate(109.38873291015625,225.6392364501953)"/>
<path d="M0 0 C0.754 -0.001 1.509 -0.001 2.286 -0.002 C26.782 -0.015 51.069 0.56 75.438 3.25 C76.153 3.327 76.869 3.405 77.607 3.484 C92.229 5.067 106.79 7.047 121.312 9.375 C122.318 9.533 123.323 9.692 124.359 9.855 C125.269 10.009 126.18 10.162 127.117 10.32 C128.304 10.518 128.304 10.518 129.515 10.719 C131.438 11.25 131.438 11.25 133.438 13.25 C133.678 15.503 133.678 15.503 133.665 18.342 C133.664 19.403 133.664 20.464 133.664 21.557 C133.654 22.706 133.643 23.855 133.633 25.039 C133.629 26.799 133.629 26.799 133.624 28.595 C133.613 32.355 133.588 36.115 133.562 39.875 C133.552 42.419 133.543 44.964 133.535 47.508 C133.513 53.755 133.48 60.003 133.438 66.25 C132.83 66.258 132.223 66.266 131.597 66.275 C125.287 66.36 118.977 66.46 112.667 66.567 C110.311 66.606 107.955 66.641 105.599 66.672 C102.215 66.717 98.832 66.775 95.449 66.836 C94.393 66.847 93.337 66.859 92.248 66.871 C91.267 66.891 90.287 66.911 89.276 66.931 C88.412 66.944 87.548 66.958 86.658 66.972 C84.152 67.118 84.152 67.118 81.438 69.25 C80.25 72.812 80.072 74.505 81.739 77.905 C85.948 81.563 90.142 80.977 95.547 80.957 C97.17 80.98 97.17 80.98 98.826 81.003 C102.28 81.046 105.733 81.055 109.188 81.062 C111.53 81.086 113.872 81.111 116.215 81.139 C121.956 81.206 127.695 81.227 133.438 81.25 C133.438 89.83 133.438 98.41 133.438 107.25 C46.317 107.25 -40.803 107.25 -130.562 107.25 C-130.562 98.67 -130.562 90.09 -130.562 81.25 C-128.241 81.249 -125.92 81.247 -123.528 81.246 C-101.691 81.23 -79.853 81.187 -58.016 81.118 C-46.788 81.083 -35.56 81.058 -24.332 81.054 C-14.548 81.051 -4.763 81.031 5.021 80.989 C10.203 80.968 15.386 80.956 20.568 80.964 C25.444 80.971 30.319 80.956 35.194 80.922 C36.986 80.914 38.777 80.914 40.569 80.923 C43.012 80.935 45.452 80.916 47.895 80.889 C48.963 80.905 48.963 80.905 50.053 80.922 C53.74 80.846 55.193 80.481 57.913 77.909 C59.712 75.3 59.712 75.3 59.375 72.062 C58.659 68.954 58.659 68.954 55.438 67.25 C52.927 67.049 50.527 66.965 48.015 66.972 C46.872 66.963 46.872 66.963 45.706 66.954 C43.145 66.937 40.584 66.934 38.023 66.931 C36.19 66.922 34.357 66.912 32.524 66.901 C27.541 66.873 22.558 66.858 17.575 66.845 C12.369 66.83 7.164 66.803 1.959 66.777 C-7.9 66.73 -17.76 66.694 -27.62 66.661 C-38.843 66.622 -50.067 66.573 -61.29 66.523 C-84.381 66.419 -107.472 66.33 -130.562 66.25 C-130.613 58.739 -130.648 51.227 -130.672 43.716 C-130.682 41.159 -130.696 38.602 -130.713 36.045 C-130.738 32.376 -130.749 28.708 -130.758 25.039 C-130.768 23.89 -130.778 22.741 -130.789 21.557 C-130.789 20.496 -130.789 19.435 -130.79 18.342 C-130.794 17.405 -130.798 16.468 -130.803 15.503 C-130.562 13.25 -130.562 13.25 -128.562 11.25 C-126.111 10.698 -123.722 10.258 -121.242 9.883 C-120.111 9.703 -120.111 9.703 -118.956 9.52 C-116.451 9.128 -113.945 8.75 -111.438 8.375 C-110.578 8.244 -109.718 8.113 -108.833 7.978 C-95.321 5.93 -81.787 4.281 -68.188 2.938 C-66.965 2.816 -66.965 2.816 -65.717 2.692 C-60.336 2.164 -54.952 1.689 -49.562 1.25 C-48.311 1.145 -47.059 1.041 -45.769 0.933 C-30.544 -0.15 -15.256 0.005 0 0 Z " fill="#858390" transform="translate(241.5625,103.75)"/>
<path d="M0 0 C1.003 -0.003 2.006 -0.005 3.04 -0.008 C6.387 -0.013 9.734 0.004 13.081 0.02 C15.487 0.021 17.892 0.021 20.297 0.019 C26.14 0.018 31.984 0.031 37.828 0.05 C44.63 0.072 51.433 0.076 58.235 0.08 C70.366 0.086 82.496 0.106 94.626 0.134 C106.406 0.162 118.186 0.183 129.966 0.196 C130.693 0.197 131.42 0.198 132.168 0.198 C135.814 0.202 139.46 0.206 143.106 0.21 C173.329 0.241 203.552 0.294 233.775 0.361 C233.783 0.933 233.791 1.504 233.799 2.094 C233.885 8.031 233.985 13.967 234.092 19.904 C234.131 22.122 234.165 24.339 234.197 26.557 C234.242 29.739 234.3 32.921 234.361 36.103 C234.378 37.597 234.378 37.597 234.396 39.121 C234.426 40.502 234.426 40.502 234.456 41.911 C234.476 43.13 234.476 43.13 234.496 44.374 C234.604 46.591 234.604 46.591 236.775 48.361 C244.218 49.103 249.367 46.761 255.976 43.585 C260.303 41.7 262.96 41.024 267.529 42.517 C268.957 43.102 270.374 43.714 271.775 44.361 C272.682 44.746 273.59 45.132 274.525 45.529 C275.267 45.865 276.01 46.202 276.775 46.548 C281.401 48.435 285.804 49.282 290.775 48.361 C293.212 45.923 293.039 45.257 293.094 41.911 C293.114 40.977 293.134 40.044 293.154 39.082 C293.171 37.607 293.171 37.607 293.189 36.103 C293.215 34.75 293.215 34.75 293.242 33.369 C293.305 29.991 293.352 26.614 293.4 23.236 C293.524 15.687 293.647 8.138 293.775 0.361 C317.535 0.361 341.295 0.361 365.775 0.361 C364.775 9.361 364.775 9.361 363.732 13.626 C362.381 19.421 362.434 25.186 362.462 31.111 C362.464 32.261 362.466 33.412 362.468 34.598 C362.563 42.637 363.377 49.67 365.775 57.361 C366.118 59.025 366.453 60.692 366.775 62.361 C365.523 62.365 364.272 62.369 362.983 62.373 C358.338 62.395 353.694 62.449 349.05 62.513 C347.04 62.537 345.031 62.551 343.021 62.556 C340.131 62.566 337.243 62.607 334.353 62.654 C333.006 62.648 333.006 62.648 331.632 62.642 C326.407 62.727 326.407 62.727 322.239 65.717 C320.679 68.344 320.679 68.344 319.775 71.361 C313.505 71.361 307.235 71.361 300.775 71.361 C299.29 68.391 299.29 68.391 297.775 65.361 C295.223 62.809 294.318 63.111 290.778 63.11 C289.714 63.105 288.65 63.1 287.554 63.095 C286.376 63.1 285.198 63.104 283.985 63.109 C282.74 63.106 281.496 63.103 280.214 63.1 C276.749 63.094 273.284 63.096 269.819 63.103 C266.086 63.107 262.353 63.1 258.62 63.094 C252.146 63.086 245.673 63.084 239.199 63.086 C229.828 63.089 220.457 63.078 211.086 63.062 C195.87 63.036 180.653 63.016 165.436 63.002 C164.525 63.002 163.613 63.001 162.674 63 C149.753 62.989 136.832 62.983 123.911 62.981 C122.548 62.98 122.548 62.98 121.157 62.98 C120.249 62.98 119.341 62.98 118.406 62.979 C103.256 62.976 88.107 62.956 72.958 62.925 C63.615 62.906 54.272 62.9 44.928 62.911 C38.52 62.917 32.111 62.909 25.703 62.89 C22.007 62.879 18.312 62.875 14.617 62.888 C10.605 62.902 6.593 62.886 2.581 62.866 C1.421 62.875 0.261 62.885 -0.935 62.894 C-10.952 62.8 -19.05 60.368 -26.467 53.431 C-33.289 45.397 -34.911 36.585 -34.225 26.361 C-32.5 16.746 -28.267 10.555 -20.581 4.72 C-13.686 0.741 -7.807 -0.074 0 0 Z " fill="#F0F1F1" transform="translate(81.2252197265625,397.6392364501953)"/>
<path d="M0 0 C1.599 0.547 3.199 1.092 4.799 1.637 C9.915 3.384 15.02 5.159 20.125 6.938 C21.759 7.505 23.393 8.072 25.028 8.64 C31.812 10.996 38.593 13.359 45.371 15.735 C60.775 21.133 76.206 26.451 91.642 31.756 C111.123 38.451 130.594 45.172 150.039 51.972 C166.38 57.687 182.745 63.332 199.125 68.938 C199.125 69.597 199.125 70.257 199.125 70.938 C197.927 71.355 196.729 71.773 195.495 72.203 C190.947 73.789 186.4 75.375 181.852 76.962 C179.903 77.641 177.954 78.321 176.005 79.001 C174.112 79.661 172.22 80.321 170.327 80.981 C168.426 81.644 166.525 82.307 164.623 82.97 C159.943 84.601 155.265 86.239 150.592 87.89 C149.705 88.203 148.818 88.515 147.905 88.837 C146.255 89.419 144.606 90.003 142.958 90.589 C137.396 92.548 131.785 94.285 126.125 95.938 C126.013 95.231 125.901 94.525 125.785 93.798 C124.883 88.334 123.878 84.197 120.125 79.938 C115.33 76.81 111.185 75.204 105.5 74.375 C104.772 74.258 104.044 74.141 103.294 74.021 C100.907 73.644 98.516 73.29 96.125 72.938 C94.445 72.681 92.764 72.424 91.084 72.167 C72.854 69.435 54.499 67.414 36.125 65.938 C35.058 65.851 33.99 65.764 32.891 65.675 C22.853 64.928 12.866 64.757 2.805 64.734 C1.949 64.732 1.093 64.729 0.211 64.726 C-4.338 64.711 -8.887 64.702 -13.436 64.697 C-17.106 64.693 -20.776 64.679 -24.446 64.656 C-56.163 64.462 -87.498 65.978 -118.938 70.375 C-120.103 70.534 -120.103 70.534 -121.292 70.697 C-130.508 71.957 -139.725 73.256 -148.875 74.938 C-149.633 75.067 -150.391 75.196 -151.172 75.33 C-157.272 76.563 -160.893 79.318 -164.625 84.25 C-166.255 87.756 -167.043 91.162 -167.875 94.938 C-171.882 94.35 -175.56 93.49 -179.387 92.172 C-180.956 91.635 -180.956 91.635 -182.556 91.088 C-183.651 90.708 -184.747 90.329 -185.875 89.938 C-186.969 89.563 -188.063 89.189 -189.19 88.803 C-192.691 87.603 -196.19 86.396 -199.688 85.188 C-200.95 84.751 -202.213 84.315 -203.476 83.879 C-206.031 82.996 -208.587 82.113 -211.142 81.229 C-213.568 80.39 -215.994 79.551 -218.421 78.712 C-221.635 77.602 -224.849 76.489 -228.062 75.375 C-229.03 75.041 -229.997 74.707 -230.993 74.362 C-232.317 73.903 -232.317 73.903 -233.668 73.434 C-234.436 73.167 -235.205 72.901 -235.997 72.627 C-237.875 71.938 -237.875 71.938 -239.875 70.938 C-239.875 70.278 -239.875 69.618 -239.875 68.938 C-226.207 64.008 -212.541 59.095 -198.74 54.548 C-188.527 51.178 -178.376 47.631 -168.219 44.099 C-161.636 41.812 -155.049 39.538 -148.464 37.26 C-143.063 35.391 -137.664 33.516 -132.27 31.629 C-131.215 31.26 -130.16 30.892 -129.073 30.512 C-127.075 29.813 -125.078 29.113 -123.081 28.412 C-122.191 28.101 -121.3 27.789 -120.383 27.469 C-119.606 27.196 -118.829 26.923 -118.028 26.643 C-116.005 25.98 -113.94 25.454 -111.875 24.938 C-111.545 21.638 -111.215 18.337 -110.875 14.938 C-108.108 13.905 -105.337 12.887 -102.562 11.875 C-101.777 11.58 -100.991 11.286 -100.182 10.982 C-99.424 10.708 -98.667 10.435 -97.887 10.152 C-97.19 9.896 -96.494 9.639 -95.776 9.375 C-93.875 8.938 -93.875 8.938 -90.875 9.938 C-90.071 10.989 -90.071 10.989 -89.25 12.062 C-86.527 14.212 -86.145 14.156 -82.867 13.781 C-77.487 13.049 -72.666 11.267 -67.625 9.312 C-65.688 8.585 -63.751 7.86 -61.812 7.137 C-60.832 6.77 -59.851 6.403 -58.84 6.025 C-54.132 4.298 -49.384 2.702 -44.625 1.125 C-43.793 0.848 -42.961 0.57 -42.104 0.285 C-40.498 -0.246 -38.89 -0.771 -37.279 -1.288 C-35.635 -1.818 -33.995 -2.365 -32.361 -2.927 C-20.328 -6.891 -11.576 -4.039 0 0 Z " fill="#858390" transform="translate(263.875,25.0625)"/>
<path d="M0 0 C1.626 -0.003 3.253 -0.008 4.879 -0.014 C9.305 -0.027 13.731 -0.021 18.157 -0.011 C22.946 -0.004 27.735 -0.015 32.524 -0.023 C41.887 -0.036 51.249 -0.034 60.611 -0.025 C68.218 -0.018 75.825 -0.017 83.432 -0.02 C84.516 -0.021 85.601 -0.021 86.718 -0.022 C88.921 -0.023 91.125 -0.024 93.328 -0.025 C113.955 -0.033 134.581 -0.024 155.208 -0.007 C172.91 0.006 190.612 0.004 208.314 -0.01 C228.885 -0.026 249.456 -0.033 270.027 -0.023 C272.219 -0.022 274.41 -0.021 276.602 -0.02 C278.22 -0.02 278.22 -0.02 279.87 -0.019 C287.474 -0.017 295.077 -0.021 302.681 -0.028 C311.938 -0.036 321.195 -0.034 330.452 -0.018 C335.175 -0.01 339.899 -0.007 344.623 -0.017 C348.944 -0.026 353.265 -0.021 357.586 -0.005 C359.151 -0.002 360.717 -0.003 362.282 -0.011 C364.406 -0.02 366.529 -0.011 368.653 0.003 C369.833 0.004 371.014 0.004 372.231 0.005 C375.687 0.422 377.56 1.336 380.348 3.381 C382.262 5.904 382.352 7.189 382.285 10.381 C381.083 14.23 379.714 15.213 376.348 17.381 C373.213 17.881 373.213 17.881 369.61 17.88 C368.943 17.886 368.275 17.891 367.587 17.897 C365.345 17.91 363.105 17.895 360.863 17.88 C359.241 17.883 357.62 17.889 355.998 17.896 C351.538 17.911 347.079 17.9 342.619 17.886 C337.81 17.875 333.002 17.887 328.193 17.896 C319.858 17.909 311.523 17.908 303.188 17.897 C291.125 17.882 279.063 17.892 267 17.909 C247.413 17.935 227.827 17.946 208.24 17.945 C207.067 17.945 205.895 17.945 204.687 17.945 C199.936 17.945 195.185 17.944 190.434 17.944 C177.369 17.943 164.304 17.944 151.238 17.947 C150.069 17.947 148.899 17.948 147.695 17.948 C128.189 17.952 108.684 17.968 89.179 17.992 C77.149 18.006 65.119 18.009 53.089 17.998 C44.842 17.99 36.595 17.993 28.348 18.005 C23.591 18.011 18.835 18.012 14.078 18 C9.719 17.989 5.36 17.992 1.002 18.005 C-0.571 18.008 -2.144 18.005 -3.716 17.997 C-18.064 17.927 -29.882 20.362 -41.84 28.568 C-51.333 38.062 -56.847 49.578 -56.902 63.006 C-56.895 76.044 -52.518 86.854 -43.672 96.529 C-35.659 103.876 -25.107 108.498 -14.251 108.512 C-13.173 108.516 -12.096 108.52 -10.985 108.524 C-9.219 108.523 -9.219 108.523 -7.416 108.521 C-6.16 108.524 -4.904 108.527 -3.611 108.53 C-0.127 108.538 3.356 108.54 6.839 108.541 C10.596 108.543 14.354 108.55 18.111 108.557 C26.323 108.571 34.536 108.577 42.748 108.581 C47.874 108.584 53 108.588 58.125 108.593 C72.313 108.605 86.5 108.615 100.687 108.619 C101.594 108.619 102.502 108.619 103.437 108.619 C104.802 108.62 104.802 108.62 106.194 108.62 C108.038 108.62 109.881 108.621 111.725 108.621 C112.639 108.621 113.554 108.622 114.496 108.622 C129.331 108.626 144.166 108.643 159.001 108.667 C174.226 108.69 189.451 108.703 204.676 108.704 C213.227 108.705 221.778 108.711 230.328 108.729 C237.605 108.744 244.882 108.749 252.159 108.741 C255.874 108.737 259.589 108.738 263.303 108.752 C267.324 108.767 271.345 108.759 275.366 108.748 C276.548 108.757 277.731 108.765 278.949 108.773 C280.021 108.766 281.093 108.76 282.198 108.753 C283.127 108.753 284.056 108.754 285.013 108.755 C287.808 108.307 288.678 107.63 290.348 105.381 C291.07 102.775 291.07 102.775 291.348 100.381 C291.678 101.371 292.008 102.361 292.348 103.381 C298.618 103.381 304.888 103.381 311.348 103.381 C311.678 102.391 312.008 101.401 312.348 100.381 C312.637 101.515 312.925 102.65 313.223 103.818 C313.594 104.994 313.965 106.17 314.348 107.381 C316.981 108.697 318.963 108.52 321.912 108.539 C323.659 108.554 323.659 108.554 325.442 108.57 C326.706 108.577 327.971 108.584 329.274 108.592 C331.252 108.613 333.231 108.634 335.209 108.656 C340.097 108.709 344.985 108.753 349.873 108.782 C352.613 108.799 355.352 108.824 358.091 108.857 C360.673 108.888 363.255 108.908 365.837 108.914 C367.012 108.931 368.186 108.947 369.396 108.964 C370.943 108.977 370.943 108.977 372.52 108.989 C376.476 109.537 379.296 110.994 381.723 114.193 C382.62 117.333 382.32 119.269 381.348 122.381 C378.661 125.093 377.003 126.277 373.203 126.881 C372.009 126.881 370.815 126.881 369.585 126.882 C368.914 126.887 368.244 126.893 367.553 126.898 C365.302 126.912 363.052 126.897 360.801 126.882 C359.172 126.886 357.544 126.892 355.915 126.899 C351.436 126.914 346.958 126.903 342.479 126.889 C337.65 126.878 332.821 126.89 327.992 126.899 C318.528 126.913 309.064 126.905 299.6 126.89 C288.576 126.874 277.552 126.877 266.528 126.88 C246.85 126.886 227.173 126.872 207.495 126.848 C188.411 126.824 169.328 126.816 150.243 126.827 C129.464 126.838 108.684 126.84 87.905 126.826 C85.687 126.824 83.469 126.823 81.251 126.821 C79.614 126.82 79.614 126.82 77.944 126.819 C70.265 126.814 62.586 126.816 54.907 126.82 C45.539 126.825 36.171 126.819 26.803 126.8 C22.025 126.79 17.248 126.785 12.471 126.792 C8.091 126.799 3.711 126.793 -0.668 126.775 C-2.247 126.771 -3.825 126.772 -5.403 126.778 C-25.641 126.856 -42.925 121.926 -57.652 107.381 C-69.771 93.881 -75.254 78.342 -74.965 60.385 C-73.846 41.405 -64.986 26.929 -51.398 14.283 C-36.592 1.877 -18.522 -0.087 0 0 Z " fill="#EA5126" transform="translate(89.65200805664063,365.6190490722656)"/>
<path d="M0 0 C1.417 -0.001 2.834 -0.004 4.251 -0.008 C8.112 -0.014 11.972 -0.003 15.833 0.013 C20.009 0.026 24.185 0.021 28.36 0.019 C35.584 0.017 42.808 0.027 50.032 0.044 C60.476 0.068 70.92 0.076 81.365 0.08 C98.312 0.086 115.26 0.106 132.207 0.134 C148.665 0.162 165.122 0.183 181.58 0.196 C183.103 0.197 183.103 0.197 184.657 0.198 C189.751 0.202 194.845 0.206 199.939 0.21 C242.163 0.241 284.387 0.294 326.611 0.361 C324.863 5.828 322.953 11.119 320.611 16.361 C319.915 16.362 319.219 16.363 318.502 16.364 C277.225 16.422 235.948 16.496 194.671 16.59 C189.713 16.601 184.755 16.612 179.797 16.623 C178.81 16.625 177.823 16.628 176.806 16.63 C160.832 16.665 144.857 16.69 128.882 16.711 C112.487 16.733 96.092 16.766 79.696 16.809 C69.582 16.836 59.468 16.854 49.354 16.86 C42.415 16.865 35.476 16.882 28.538 16.906 C24.536 16.92 20.535 16.93 16.534 16.926 C12.865 16.922 9.196 16.933 5.528 16.954 C3.583 16.962 1.639 16.955 -0.306 16.947 C-14.798 17.064 -27.676 21.048 -38.354 31.142 C-47.07 40.645 -51.235 53.291 -50.772 66.099 C-49.268 78.909 -43.902 90.259 -33.943 98.54 C-21.495 107.41 -9.367 108.677 5.443 108.662 C6.968 108.665 8.492 108.67 10.017 108.675 C13.195 108.682 16.373 108.682 19.55 108.676 C23.62 108.671 27.69 108.688 31.76 108.711 C34.9 108.726 38.041 108.726 41.182 108.723 C42.683 108.724 44.184 108.729 45.685 108.739 C47.779 108.751 49.872 108.745 51.966 108.733 C53.751 108.734 53.751 108.734 55.571 108.735 C58.9 108.325 60.288 107.748 62.611 105.361 C63.421 102.259 63.421 102.259 63.611 99.361 C63.941 100.351 64.271 101.341 64.611 102.361 C70.881 102.361 77.151 102.361 83.611 102.361 C83.941 101.371 84.271 100.381 84.611 99.361 C85.013 101.031 85.013 101.031 85.424 102.736 C86.269 106.579 86.269 106.579 89.611 108.361 C91.567 108.658 91.567 108.658 93.73 108.609 C94.573 108.613 95.415 108.617 96.283 108.622 C97.671 108.614 97.671 108.614 99.088 108.606 C100.562 108.609 100.562 108.609 102.067 108.612 C105.377 108.618 108.686 108.609 111.996 108.6 C114.362 108.601 116.729 108.603 119.096 108.606 C124.2 108.611 129.304 108.61 134.408 108.605 C142.475 108.596 150.541 108.608 158.608 108.622 C161.368 108.626 164.127 108.631 166.887 108.635 C167.921 108.637 167.921 108.637 168.976 108.639 C176.827 108.651 184.678 108.658 192.529 108.664 C193.247 108.665 193.965 108.665 194.704 108.666 C206.337 108.674 217.97 108.671 229.603 108.665 C241.544 108.659 253.485 108.673 265.426 108.703 C272.131 108.719 278.837 108.725 285.542 108.708 C291.848 108.693 298.152 108.7 304.458 108.725 C306.775 108.73 309.091 108.727 311.408 108.714 C314.566 108.698 317.723 108.713 320.881 108.735 C321.802 108.723 322.723 108.711 323.672 108.699 C328.145 108.763 330.027 108.913 333.68 111.712 C335.611 114.361 335.611 114.361 336.236 117.361 C335.597 120.427 334.826 122.16 332.532 124.312 C327.939 126.82 322.12 126.031 317.038 125.982 C315.624 125.987 314.21 125.993 312.796 126.002 C308.91 126.019 305.025 126.004 301.139 125.985 C296.948 125.97 292.757 125.983 288.566 125.993 C280.353 126.007 272.14 125.995 263.928 125.974 C254.359 125.95 244.79 125.951 235.221 125.954 C218.139 125.958 201.057 125.937 183.976 125.903 C167.414 125.87 150.852 125.855 134.29 125.862 C116.253 125.869 98.216 125.866 80.178 125.846 C78.746 125.845 78.746 125.845 77.284 125.843 C75.366 125.841 73.447 125.839 71.529 125.837 C64.866 125.83 58.203 125.829 51.54 125.831 C43.409 125.832 35.278 125.822 27.147 125.799 C23.001 125.787 18.856 125.78 14.711 125.786 C10.908 125.791 7.106 125.782 3.303 125.762 C1.292 125.755 -0.719 125.763 -2.73 125.771 C-21.019 125.636 -36.704 120.243 -49.697 107.247 C-63.249 92.713 -68.072 77.125 -67.701 57.642 C-67.011 41.526 -59.583 28.594 -48.389 17.361 C-47.774 16.723 -47.159 16.085 -46.525 15.427 C-33.806 3.198 -17.037 -0.115 0 0 Z " fill="#B6E446" transform="translate(109.38873291015625,225.6392364501953)"/>
<path d="M0 0 C0.833 -0.006 1.667 -0.011 2.525 -0.017 C3.442 -0.024 4.358 -0.03 5.303 -0.037 C6.253 -0.017 7.203 0.002 8.182 0.022 C9.607 -0.007 9.607 -0.007 11.061 -0.037 C11.977 -0.03 12.894 -0.024 13.838 -0.017 C14.671 -0.011 15.505 -0.006 16.363 0 C18.682 0.647 18.682 0.647 20.29 3.144 C23.076 6.06 23.757 6.054 27.634 6.306 C29.686 6.347 31.739 6.362 33.791 6.354 C35.414 6.377 35.414 6.377 37.07 6.4 C40.524 6.443 43.977 6.452 47.432 6.459 C49.774 6.483 52.117 6.508 54.459 6.536 C60.2 6.603 65.939 6.624 71.682 6.647 C71.682 15.227 71.682 23.807 71.682 32.647 C-15.438 32.647 -102.558 32.647 -192.318 32.647 C-192.318 24.067 -192.318 15.487 -192.318 6.647 C-189.997 6.646 -187.676 6.644 -185.284 6.643 C-163.446 6.627 -141.609 6.584 -119.771 6.515 C-108.544 6.48 -97.316 6.455 -86.088 6.451 C-76.303 6.448 -66.519 6.428 -56.735 6.386 C-51.552 6.365 -46.37 6.353 -41.188 6.361 C-36.312 6.368 -31.437 6.353 -26.561 6.319 C-24.77 6.311 -22.978 6.311 -21.187 6.32 C-18.744 6.332 -16.303 6.313 -13.861 6.286 C-12.793 6.302 -12.793 6.302 -11.703 6.319 C-9.465 6.327 -9.465 6.327 -6.318 5.647 C-1.435 0.4 -1.435 0.4 0 0 Z " fill="#FCCC08" transform="translate(303.318359375,178.35302734375)"/>
<path d="M0 0 C1.003 -0.003 2.006 -0.005 3.04 -0.008 C6.387 -0.013 9.734 0.004 13.081 0.02 C15.487 0.021 17.892 0.021 20.297 0.019 C26.14 0.018 31.984 0.031 37.828 0.05 C44.63 0.072 51.433 0.076 58.235 0.08 C70.366 0.086 82.496 0.106 94.626 0.134 C106.406 0.162 118.186 0.183 129.966 0.196 C130.693 0.197 131.42 0.198 132.168 0.198 C135.814 0.202 139.46 0.206 143.106 0.21 C173.329 0.241 203.552 0.295 233.775 0.361 C233.775 14.881 233.775 29.401 233.775 44.361 C233.445 44.361 233.115 44.361 232.775 44.361 C232.775 33.141 232.775 21.921 232.775 10.361 C202.353 10.398 171.932 10.454 141.511 10.539 C137.917 10.549 134.324 10.559 130.73 10.568 C130.015 10.57 129.299 10.572 128.562 10.574 C116.987 10.605 105.411 10.622 93.836 10.634 C81.954 10.646 70.072 10.674 58.189 10.715 C51.517 10.738 44.845 10.754 38.173 10.753 C31.892 10.752 25.611 10.77 19.329 10.802 C17.025 10.81 14.722 10.812 12.418 10.807 C9.268 10.8 6.118 10.818 2.968 10.842 C2.061 10.834 1.153 10.826 0.218 10.818 C-6.79 10.912 -13.169 12.476 -18.381 17.396 C-18.825 18.065 -19.268 18.734 -19.725 19.423 C-20.189 20.095 -20.653 20.766 -21.131 21.458 C-24.286 26.944 -23.835 33.244 -23.225 39.361 C-21.269 45.633 -17.827 49.271 -12.19 52.486 C-8.091 54.311 -4.41 54.489 0.061 54.499 C1.361 54.505 2.662 54.51 4.001 54.516 C5.448 54.517 6.894 54.518 8.34 54.519 C9.874 54.524 11.408 54.529 12.942 54.534 C17.163 54.548 21.384 54.555 25.604 54.561 C30.154 54.569 34.703 54.583 39.253 54.596 C47.137 54.618 55.021 54.636 62.905 54.652 C74.305 54.674 85.704 54.703 97.103 54.732 C115.597 54.78 134.091 54.823 152.585 54.863 C170.552 54.903 188.519 54.944 206.486 54.988 C208.147 54.993 208.147 54.993 209.841 54.997 C215.395 55.01 220.949 55.024 226.503 55.038 C272.594 55.152 318.684 55.259 364.775 55.361 C365.435 57.671 366.095 59.981 366.775 62.361 C365.523 62.365 364.272 62.369 362.983 62.373 C358.338 62.395 353.694 62.449 349.05 62.513 C347.04 62.537 345.031 62.551 343.021 62.556 C340.131 62.566 337.243 62.607 334.353 62.654 C333.006 62.648 333.006 62.648 331.632 62.642 C326.407 62.727 326.407 62.727 322.239 65.717 C320.679 68.344 320.679 68.344 319.775 71.361 C313.505 71.361 307.235 71.361 300.775 71.361 C299.29 68.391 299.29 68.391 297.775 65.361 C295.223 62.809 294.318 63.111 290.778 63.11 C289.714 63.105 288.65 63.1 287.554 63.095 C286.376 63.1 285.198 63.104 283.985 63.109 C282.74 63.106 281.496 63.103 280.214 63.1 C276.749 63.094 273.284 63.096 269.819 63.103 C266.086 63.107 262.353 63.1 258.62 63.094 C252.146 63.086 245.673 63.084 239.199 63.086 C229.828 63.089 220.457 63.078 211.086 63.062 C195.87 63.036 180.653 63.016 165.436 63.002 C164.525 63.002 163.613 63.001 162.674 63 C149.753 62.989 136.832 62.983 123.911 62.981 C122.548 62.98 122.548 62.98 121.157 62.98 C120.249 62.98 119.341 62.98 118.406 62.979 C103.256 62.976 88.107 62.956 72.958 62.925 C63.615 62.906 54.272 62.9 44.928 62.911 C38.52 62.917 32.111 62.909 25.703 62.89 C22.007 62.879 18.312 62.875 14.617 62.888 C10.605 62.902 6.593 62.886 2.581 62.866 C1.421 62.875 0.261 62.885 -0.935 62.894 C-10.952 62.8 -19.05 60.368 -26.467 53.431 C-33.289 45.397 -34.911 36.585 -34.225 26.361 C-32.5 16.746 -28.267 10.555 -20.581 4.72 C-13.686 0.741 -7.807 -0.074 0 0 Z " fill="#DCDFDF" transform="translate(81.2252197265625,397.6392364501953)"/>
<path d="M0 0 C4.95 0.041 9.9 0.082 15 0.125 C15 13.985 15 27.845 15 42.125 C14.67 42.125 14.34 42.125 14 42.125 C14 31.565 14 21.005 14 10.125 C9.421 10.207 4.843 10.29 0.125 10.375 C-2.009 10.399 -2.009 10.399 -4.187 10.423 C-12.401 10.641 -20.515 11.159 -26.931 16.832 C-32.136 22.364 -33.456 28.133 -33.332 35.59 C-32.888 38.977 -31.679 41.504 -29.973 44.434 C-29 46.125 -29 46.125 -28 49.125 C-26.302 50.227 -26.302 50.227 -24 51.125 C-23.063 51.633 -22.126 52.141 -21.161 52.665 C-15.682 54.99 -9.9 54.528 -4.048 54.486 C-2.739 54.488 -1.43 54.491 -0.082 54.494 C3.539 54.5 7.16 54.488 10.782 54.473 C14.691 54.46 18.6 54.465 22.509 54.467 C29.279 54.468 36.048 54.459 42.818 54.442 C52.605 54.418 62.392 54.41 72.18 54.406 C88.06 54.4 103.94 54.38 119.82 54.351 C135.244 54.324 150.669 54.303 166.093 54.29 C167.52 54.289 167.52 54.289 168.975 54.287 C173.746 54.283 178.517 54.28 183.288 54.276 C222.859 54.245 262.429 54.192 302 54.125 C302.66 57.095 303.32 60.065 304 63.125 C302.854 63.126 301.709 63.128 300.528 63.129 C272.679 63.166 244.83 63.225 216.98 63.309 C214.302 63.317 211.623 63.325 208.944 63.333 C207.945 63.335 207.945 63.335 206.926 63.338 C196.139 63.369 185.353 63.386 174.566 63.398 C163.501 63.411 152.436 63.438 141.371 63.48 C135.154 63.502 128.938 63.518 122.722 63.517 C116.874 63.516 111.027 63.534 105.18 63.566 C103.03 63.575 100.881 63.576 98.732 63.571 C95.803 63.564 92.875 63.582 89.947 63.606 C89.091 63.598 88.235 63.59 87.353 63.583 C82.589 63.649 82.589 63.649 78.503 65.97 C76.837 68.142 76.837 68.142 76 71.125 C69.73 71.125 63.46 71.125 57 71.125 C56.01 69.145 55.02 67.165 54 65.125 C51.188 63.719 48.835 63.985 45.689 63.967 C45.042 63.962 44.395 63.957 43.727 63.952 C42.319 63.941 40.91 63.933 39.501 63.926 C37.263 63.914 35.026 63.895 32.788 63.873 C26.424 63.811 20.061 63.757 13.697 63.724 C9.804 63.703 5.912 63.667 2.019 63.623 C0.543 63.609 -0.934 63.6 -2.411 63.597 C-14.61 63.568 -25.527 62.493 -35 54.125 C-41.549 46.664 -44.551 39.447 -44.242 29.477 C-43.36 20.908 -40.168 14.165 -34 8.125 C-23.256 -0.047 -12.966 -0.153 0 0 Z " fill="#D5D7D9" transform="translate(117,256.875)"/>
<path d="M0 0 C1.518 -0.003 3.036 -0.007 4.554 -0.01 C7.716 -0.016 10.879 -0.018 14.041 -0.017 C17.212 -0.017 20.383 -0.024 23.553 -0.038 C51.781 -0.158 79.648 1.187 107.707 4.48 C109.091 4.64 109.091 4.64 110.503 4.804 C122.506 6.198 134.474 7.747 146.395 9.73 C148.114 10.009 148.114 10.009 149.867 10.292 C158.798 11.875 166.085 14.608 172.645 21.168 C175.967 26.017 177.911 30.298 178.645 36.168 C179.305 36.498 179.965 36.828 180.645 37.168 C178.354 38.005 176.062 38.838 173.77 39.668 C173.119 39.906 172.468 40.145 171.797 40.391 C166.871 42.168 166.871 42.168 164.645 42.168 C164.547 41.516 164.449 40.863 164.348 40.191 C163.404 34.674 162.443 30.48 158.645 26.168 C153.85 23.041 149.705 21.435 144.02 20.605 C142.928 20.43 142.928 20.43 141.814 20.252 C139.426 19.874 137.036 19.52 134.645 19.168 C132.964 18.911 131.284 18.654 129.603 18.398 C111.374 15.665 93.019 13.644 74.645 12.168 C73.577 12.081 72.51 11.995 71.41 11.905 C61.372 11.159 51.386 10.988 41.324 10.965 C40.468 10.962 39.613 10.959 38.731 10.956 C34.182 10.941 29.633 10.932 25.084 10.928 C21.414 10.923 17.744 10.91 14.073 10.887 C-17.644 10.693 -48.978 12.208 -80.418 16.605 C-81.195 16.712 -81.972 16.818 -82.773 16.927 C-91.989 18.187 -101.206 19.486 -110.355 21.168 C-111.493 21.362 -111.493 21.362 -112.653 21.56 C-118.753 22.794 -122.373 25.549 -126.105 30.48 C-127.736 33.986 -128.524 37.392 -129.355 41.168 C-132.735 40.63 -136.043 40.025 -139.355 39.168 C-139.075 30.459 -136.417 24.503 -130.438 18.121 C-122.462 11.515 -112.246 10.649 -102.355 9.168 C-101.067 8.97 -99.778 8.771 -98.451 8.567 C-65.873 3.585 -32.985 0.017 0 0 Z " fill="#74747B" transform="translate(225.35546875,78.83203125)"/>
<path d="M0 0 C3.3 0 6.6 0 10 0 C10.061 0.915 10.121 1.83 10.184 2.773 C10.267 3.962 10.351 5.15 10.438 6.375 C10.559 8.15 10.559 8.15 10.684 9.961 C10.811 12.915 10.811 12.915 12 15 C14.764 15.921 16.408 16.129 19.258 16.139 C20.131 16.144 21.005 16.15 21.904 16.155 C23.345 16.157 23.345 16.157 24.814 16.158 C25.833 16.163 26.853 16.168 27.903 16.173 C31.335 16.189 34.766 16.197 38.198 16.205 C40.652 16.215 43.105 16.225 45.559 16.235 C50.85 16.257 56.14 16.275 61.431 16.291 C69.081 16.314 76.73 16.342 84.38 16.371 C96.79 16.419 109.2 16.462 121.611 16.503 C133.667 16.542 145.724 16.583 157.781 16.628 C158.523 16.63 159.266 16.633 160.032 16.636 C163.759 16.65 167.486 16.663 171.214 16.677 C202.142 16.791 233.071 16.898 264 17 C264 19.97 264 22.94 264 26 C176.88 26 89.76 26 0 26 C0 17.42 0 8.84 0 0 Z " fill="#F09F17" transform="translate(111,185)"/>
<path d="M0 0 C0.33 0 0.66 0 1 0 C1.009 0.552 1.019 1.105 1.028 1.674 C1.514 24.668 5.336 44.556 22.156 61.348 C39.495 77.519 59.615 81.479 82.54 81.399 C84.142 81.404 85.744 81.411 87.346 81.419 C91.699 81.437 96.053 81.436 100.406 81.433 C105.119 81.432 109.832 81.449 114.544 81.463 C122.694 81.486 130.843 81.498 138.992 81.502 C150.774 81.509 162.556 81.532 174.339 81.559 C193.458 81.602 212.577 81.632 231.697 81.654 C250.261 81.675 268.825 81.702 287.389 81.738 C288.535 81.74 289.681 81.742 290.861 81.744 C296.61 81.755 302.358 81.766 308.107 81.778 C355.738 81.871 403.369 81.942 451 82 C448.75 84.795 447.576 85.905 443.979 86.5 C442.785 86.5 441.59 86.5 440.36 86.501 C439.356 86.509 439.356 86.509 438.331 86.517 C436.078 86.531 433.826 86.516 431.573 86.501 C429.945 86.505 428.318 86.511 426.69 86.518 C422.209 86.533 417.728 86.523 413.247 86.508 C408.417 86.497 403.588 86.509 398.758 86.518 C389.29 86.532 379.823 86.524 370.356 86.509 C359.328 86.493 348.301 86.496 337.273 86.5 C317.59 86.505 297.906 86.491 278.223 86.467 C259.132 86.443 240.041 86.436 220.95 86.446 C200.166 86.457 179.382 86.459 158.598 86.445 C156.379 86.443 154.16 86.442 151.942 86.44 C150.85 86.44 149.759 86.439 148.634 86.438 C140.953 86.433 133.271 86.435 125.59 86.439 C116.218 86.444 106.846 86.438 97.474 86.419 C92.695 86.409 87.916 86.404 83.137 86.411 C78.755 86.419 74.373 86.412 69.991 86.394 C68.413 86.39 66.834 86.391 65.255 86.397 C45.014 86.475 27.729 81.547 13 67 C0.862 53.479 -4.519 38.011 -4.336 20.051 C-3.94 13.182 -1.934 6.569 0 0 Z " fill="#D73723" transform="translate(19,406)"/>
<path d="M0 0 C75.24 0 150.48 0 228 0 C227.01 3.3 226.02 6.6 225 10 C150.75 10 76.5 10 0 10 C0 6.7 0 3.4 0 0 Z " fill="#D5D8D9" transform="translate(193,257)"/>
<path d="M0 0 C1.707 3.199 2.872 6.454 4.062 9.875 C11.429 29.136 24.725 41.781 43.141 50.641 C53.595 54.72 64.536 55.441 75.629 55.399 C77.048 55.404 78.467 55.411 79.885 55.419 C83.742 55.437 87.598 55.436 91.454 55.433 C95.628 55.432 99.803 55.449 103.977 55.463 C111.195 55.486 118.414 55.498 125.632 55.502 C136.068 55.509 146.505 55.532 156.941 55.559 C173.876 55.602 190.812 55.632 207.747 55.654 C224.191 55.675 240.634 55.702 257.078 55.738 C258.6 55.741 258.6 55.741 260.154 55.744 C265.245 55.755 270.337 55.766 275.429 55.778 C317.619 55.871 359.81 55.942 402 56 C400.25 59.875 400.25 59.875 398 61 C396.141 61.097 394.279 61.129 392.418 61.131 C391.224 61.135 390.029 61.139 388.799 61.143 C387.462 61.142 386.125 61.141 384.787 61.14 C383.376 61.143 381.965 61.146 380.553 61.149 C376.661 61.158 372.768 61.159 368.876 61.16 C364.682 61.162 360.489 61.169 356.296 61.176 C347.118 61.19 337.94 61.196 328.762 61.2 C323.03 61.203 317.298 61.207 311.566 61.212 C295.695 61.224 279.824 61.234 263.953 61.238 C262.428 61.238 262.428 61.238 260.873 61.238 C259.854 61.238 258.835 61.239 257.785 61.239 C255.72 61.239 253.655 61.24 251.591 61.24 C250.054 61.241 250.054 61.241 248.487 61.241 C231.909 61.245 215.331 61.262 198.754 61.286 C181.732 61.309 164.711 61.322 147.689 61.323 C138.133 61.324 128.577 61.33 119.021 61.348 C110.879 61.363 102.736 61.368 94.594 61.36 C90.443 61.356 86.291 61.357 82.14 61.371 C78.332 61.384 74.524 61.383 70.715 61.37 C68.701 61.368 66.687 61.379 64.672 61.392 C46.378 61.293 30.685 55.883 17.691 42.887 C7.027 31.449 -0.447 17.622 -0.07 1.688 C-0.047 1.131 -0.024 0.574 0 0 Z " fill="#A9D441" transform="translate(42,290)"/>
<path d="M0 0 C7.26 0 14.52 0 22 0 C22.701 1.856 23.403 3.713 24.125 5.625 C26.008 10.526 27.982 15.366 30.062 20.188 C30.56 21.348 31.058 22.508 31.57 23.703 C32.464 25.763 33.373 27.817 34.305 29.859 C36.605 35.095 37.626 38.424 36 44 C33.567 46.433 32.934 46.259 29.598 46.291 C28.687 46.303 27.776 46.316 26.837 46.329 C25.357 46.333 25.357 46.333 23.848 46.336 C22.837 46.343 21.826 46.349 20.784 46.356 C18.643 46.366 16.502 46.371 14.361 46.371 C11.079 46.375 7.799 46.411 4.518 46.449 C2.44 46.455 0.363 46.459 -1.715 46.461 C-2.699 46.475 -3.684 46.49 -4.698 46.504 C-5.612 46.498 -6.527 46.492 -7.469 46.486 C-8.273 46.489 -9.077 46.492 -9.906 46.494 C-12 46 -12 46 -13.755 44.131 C-15.54 41.076 -15.465 39.54 -15 36 C-13.804 32.35 -12.325 28.841 -10.812 25.312 C-10.402 24.332 -9.991 23.352 -9.568 22.343 C-7.105 16.491 -4.582 10.669 -1.875 4.926 C-0.893 2.855 -0.893 2.855 0 0 Z " fill="#FCCB08" transform="translate(460,207)"/>
<path d="M0 0 C4.929 -0.021 9.859 -0.041 14.938 -0.062 C17.273 -0.076 17.273 -0.076 19.656 -0.09 C21.48 -0.094 21.48 -0.094 23.34 -0.098 C24.591 -0.103 25.843 -0.108 27.133 -0.114 C30 0 30 0 31 1 C31.088 3.219 31.107 5.44 31.098 7.66 C31.096 8.325 31.095 8.989 31.093 9.674 C31.088 11.803 31.075 13.933 31.062 16.062 C31.057 17.503 31.053 18.944 31.049 20.385 C31.038 23.923 31.021 27.462 31 31 C29.374 30.523 27.749 30.043 26.125 29.562 C25.22 29.296 24.315 29.029 23.383 28.754 C21 28 21 28 19 27 C11.561 26.191 7.889 28.37 0 31 C0 20.77 0 10.54 0 0 Z " fill="#ED5126" transform="translate(147,257)"/>
<path d="M0 0 C10.23 0 20.46 0 31 0 C31 10.23 31 20.46 31 31 C27.04 29.68 23.08 28.36 19 27 C13.443 26.246 9.894 27.669 5.016 30.125 C3 31 3 31 0 31 C0 20.77 0 10.54 0 0 Z " fill="#FCCB08" transform="translate(329,398)"/>
<path d="M0 0 C23.76 0 47.52 0 72 0 C71 9 71 9 70 10 C67.853 10.094 65.702 10.117 63.552 10.114 C62.543 10.114 62.543 10.114 61.513 10.114 C59.278 10.113 57.043 10.105 54.809 10.098 C53.263 10.096 51.717 10.094 50.172 10.093 C46.096 10.09 42.021 10.08 37.946 10.069 C33.06 10.057 28.174 10.052 23.288 10.046 C15.859 10.037 8.429 10.017 1 10 C1 20.89 1 31.78 1 43 C0.67 43 0.34 43 0 43 C0 28.81 0 14.62 0 0 Z " fill="#D7DADB" transform="translate(375,398)"/>
<path d="M0 0 C3.822 2.519 6.186 4.539 7.32 9.113 C8.152 14.942 7.787 18.75 4.75 23.812 C0.061 28.267 -3.77 29.119 -10.035 29.027 C-14.449 28.599 -16.625 26.507 -19.5 23.312 C-22.496 19.032 -22.781 14.903 -22.25 9.812 C-20.533 5.113 -18.384 2.603 -14.25 -0.188 C-9.221 -1.864 -4.91 -1.794 0 0 Z " fill="#FBCA08" transform="translate(478.25,164.1875)"/>
<path d="M0 0 C0 18.15 0 36.3 0 55 C57.42 55 114.84 55 174 55 C174 55.33 174 55.66 174 56 C113.28 56 52.56 56 -10 56 C-10 3 -10 3 -8 1 C-5.299 0.437 -2.761 0 0 0 Z " fill="#717176" transform="translate(121,114)"/>
<path d="M0 0 C7.26 0 14.52 0 22 0 C22.99 2.97 23.98 5.94 25 9 C19.055 11.123 13.402 11.312 7.109 11.461 C3.974 11.677 3.974 11.677 2.445 13.71 C-0.23 17.949 -1.821 22.654 -3.625 27.312 C-4.032 28.333 -4.44 29.353 -4.859 30.404 C-6.901 35.632 -8.541 40.394 -9 46 C-10.875 45.688 -10.875 45.688 -13 45 C-15.43 41.355 -15.48 40.323 -15 36 C-13.811 32.348 -12.325 28.841 -10.812 25.312 C-10.402 24.332 -9.991 23.352 -9.568 22.343 C-7.105 16.491 -4.582 10.669 -1.875 4.926 C-0.893 2.855 -0.893 2.855 0 0 Z " fill="#F6A617" transform="translate(460,207)"/>
<path d="M0 0 C3.3 0 6.6 0 10 0 C9.67 9.24 9.34 18.48 9 28 C3 31 3 31 0 31 C0 20.77 0 10.54 0 0 Z " fill="#EE9E17" transform="translate(329,398)"/>
<path d="M0 0 C9.9 0 19.8 0 30 0 C30 0.33 30 0.66 30 1 C22.08 1 14.16 1 6 1 C6 10.24 6 19.48 6 29 C4.02 29.66 2.04 30.32 0 31 C0 20.77 0 10.54 0 0 Z M30 1 C30.33 1 30.66 1 31 1 C31 10.9 31 20.8 31 31 C30.34 30.67 29.68 30.34 29 30 C29.33 20.43 29.66 10.86 30 1 Z " fill="#C93B20" transform="translate(147,257)"/>
<path d="M0 0 C0.99 0.33 1.98 0.66 3 1 C2.459 1.909 2.459 1.909 1.906 2.836 C-2.695 11.143 -2.941 17.781 -1 27 C-4.74 24.343 -6.874 22.505 -8 18 C-8.447 12.365 -8.197 8.851 -5 4 C-2.5 1.562 -2.5 1.562 0 0 Z " fill="#F8A917" transform="translate(464,164)"/>
</svg>